<svg width="100" height="100" viewBox="0 0 100 100" fill="none" xmlns="http://www.w3.org/2000/svg">
    <circle cx="50" cy="50" r="50" fill="#D9D9D9" />
    <path
        d="M21 34.5C21 27.0442 27.0442 21 34.5 21H55.5C62.9558 21 69 27.0442 69 34.5V34.5C69 41.9558 62.9558 48 55.5 48H34.5C27.0442 48 21 41.9558 21 34.5V34.5Z"
        fill="#FF333D" />
    <path
        d="M21 65.1976C21 57.1018 27.5629 50.5389 35.6587 50.5389H63.3413C71.4371 50.5389 78 57.1018 78 65.1976V65.1976C78 73.2934 71.4371 79.8563 63.3413 79.8563H35.6587C27.5629 79.8563 21 73.2934 21 65.1976V65.1976Z"
        fill="#FF333D" />
</svg>